<svg width="30" height="27" viewBox="0 0 30 27" fill="none" xmlns="http://www.w3.org/2000/svg">
<path id="Vector" d="M22.282 0C19.1313 0 17.7998 1.51377 15.6056 1.51377C13.3559 1.51377 11.6399 0.0110149 8.90961 0.0110149C6.23717 0.0110149 3.38735 1.65382 1.57759 4.4524C-0.96357 8.3989 -0.532229 15.8316 3.58348 22.1637C5.05567 24.4304 7.02171 26.9725 9.60038 27H9.64726C11.8884 27 12.5541 25.5224 15.6384 25.5051H15.6853C18.7234 25.5051 19.3329 26.9913 21.5646 26.9913H21.6115C24.1902 26.9638 26.2617 24.1471 27.7339 21.8891C28.7935 20.2651 29.1873 19.45 30 17.6129C24.0464 15.3375 23.0899 6.8395 28.9779 3.58143C27.1807 1.3155 24.6551 0.0031466 22.2742 0.0031466L22.282 0Z" fill="white"/>
</svg>
